<svg xmlns="http://www.w3.org/2000/svg">
	<defs>
		<style>
			:root svg:not(:target) {
				display: none;
			}
		</style>
	</defs>
    <svg id="location" width="14" height="15" viewBox="0 0 14 15">
        <g clip-path="url(#clip0_2_326)">
            <path
                d="M6.99998 0.5C4.12126 0.5 1.7793 2.84291 1.7793 5.72276C1.7793 10.0136 6.48033 14.2032 6.68052 14.3794C6.77178 14.4598 6.88586 14.5001 6.99998 14.5001C7.1141 14.5001 7.22817 14.4599 7.31948 14.3794C7.51958 14.2032 12.2207 10.0136 12.2207 5.72276C12.2207 2.84291 9.8787 0.5 6.99998 0.5ZM6.99998 4.25658C7.79963 4.25658 8.45018 4.9143 8.45018 5.72276C8.45018 6.53123 7.79963 7.18895 6.99998 7.18895C6.20033 7.18895 5.54977 6.53123 5.54977 5.72276C5.54977 4.9143 6.20033 4.25658 6.99998 4.25658Z" />
        </g>
        <defs>
            <clipPath id="clip0_2_326">
                <rect width="14" height="14" fill="white" transform="translate(0 0.5)" />
            </clipPath>
        </defs>
    </svg>
    <svg id="phone" width="14" height="15" viewBox="0 0 14 15">
        <g clip-path="url(#clip0_2_116)">
            <path
                d="M13.6189 10.7746L11.6652 8.82085C10.9674 8.12308 9.7812 8.40222 9.50209 9.30928C9.29276 9.9373 8.595 10.2862 7.96701 10.1466C6.57148 9.79772 4.68752 7.98353 4.33863 6.51822C4.1293 5.89021 4.54796 5.19244 5.17595 4.98314C6.08305 4.70403 6.36215 3.51783 5.66439 2.82007L3.71064 0.866327C3.15243 0.377891 2.31511 0.377891 1.82668 0.866327L0.500926 2.19208C-0.824828 3.58761 0.640479 7.28576 3.91997 10.5653C7.19947 13.8448 10.8976 15.3799 12.2932 13.9843L13.6189 12.6586C14.1074 12.1003 14.1074 11.263 13.6189 10.7746Z" />
        </g>
        <defs>
            <clipPath id="clip0_2_116">
                <rect width="14" height="14" fill="white" transform="translate(0 0.5)" />
            </clipPath>
        </defs>
    </svg>
    <svg id="vk" width="40" height="40" viewBox="0 0 40 40">
        <path fill-rule="evenodd" clip-rule="evenodd" d="M20 0C8.95431 0 0 8.95431 0 20C0 31.0457 8.95431 40 20 40C31.0457 40 40 31.0457 40 20C40 8.95431 31.0457 0 20 0ZM21.6284 26.3135C21.4312 26.5214 21.0462 26.5634 21.0462 26.5634H19.7712C19.7712 26.5634 16.9581 26.7293 14.48 24.1975C11.7776 21.4352 9.39128 15.9546 9.39128 15.9546C9.39128 15.9546 9.25355 15.5951 9.40276 15.422C9.57075 15.2264 10.0288 15.2141 10.0288 15.2141L13.0766 15.1947C13.0766 15.1947 13.3636 15.2407 13.5691 15.3893C13.7392 15.5122 13.8341 15.7406 13.8341 15.7406C13.8341 15.7406 14.3266 16.9635 14.9788 18.0696C16.2528 20.2297 16.8454 20.7018 17.2774 20.4704C17.9076 20.1334 17.7188 17.4172 17.7188 17.4172C17.7188 17.4172 17.7302 16.4319 17.4016 15.9925C17.147 15.6525 16.667 15.5531 16.4552 15.5255C16.283 15.5029 16.5648 15.1117 16.93 14.9365C17.4788 14.6733 18.4471 14.658 19.5917 14.6692C20.4838 14.6784 20.7405 14.7327 21.089 14.8157C21.8978 15.0073 21.8726 15.6213 21.8181 16.9464C21.8018 17.3427 21.7829 17.8026 21.7829 18.3339C21.7829 18.4532 21.7793 18.5805 21.7757 18.7114C21.7568 19.3903 21.7351 20.1677 22.1908 20.4571C22.4246 20.6045 22.9953 20.4786 24.4237 18.0983C25.1009 16.9696 25.608 15.6433 25.608 15.6433C25.608 15.6433 25.7197 15.4067 25.8918 15.3053C26.0682 15.2018 26.3061 15.2336 26.3061 15.2336L29.5135 15.2141C29.5135 15.2141 30.4776 15.1004 30.6331 15.5285C30.7969 15.9761 30.2731 17.0229 28.9626 18.7374C27.7195 20.3642 27.1145 20.9632 27.17 21.4929C27.2106 21.88 27.6038 22.2301 28.3585 22.9172C29.9338 24.3529 30.3561 25.1082 30.4575 25.2897C30.4659 25.3048 30.4721 25.3159 30.4766 25.3231C31.183 26.4733 29.693 26.5634 29.693 26.5634L26.8434 26.6023C26.8434 26.6023 26.232 26.7211 25.4265 26.1783C25.0045 25.8942 24.5922 25.4302 24.1995 24.9882C23.5997 24.3132 23.0456 23.6896 22.5727 23.8369C21.7787 24.0848 21.8027 25.7635 21.8027 25.7635C21.8027 25.7635 21.809 26.123 21.6284 26.3135Z"/>
    </svg>
    <svg id="x" width="40" height="40" viewBox="0 0 40 40">
        <path fill-rule="evenodd" clip-rule="evenodd"
            d="M20 0C8.95431 0 0 8.95431 0 20C0 31.0457 8.95431 40 20 40C31.0457 40 40 31.0457 40 20C40 8.95431 31.0457 0 20 0ZM19.443 16.9483L19.401 16.2563C19.2751 14.4626 20.3803 12.8243 22.129 12.1887C22.7725 11.9627 23.8637 11.9345 24.5772 12.1322C24.8569 12.217 25.3885 12.4994 25.7663 12.7537L26.4518 13.2197L27.2072 12.9796C27.6269 12.8525 28.1865 12.6407 28.4383 12.4994C28.6761 12.3723 28.8859 12.3017 28.8859 12.3441C28.8859 12.5842 28.3683 13.4033 27.9347 13.8553C27.3471 14.4908 27.515 14.5473 28.7041 14.1236C29.4175 13.8835 29.4315 13.8835 29.2916 14.1519C29.2077 14.2931 28.774 14.7874 28.3124 15.2394C27.529 16.0162 27.487 16.1009 27.487 16.7506C27.487 17.7533 27.0113 19.8436 26.5357 20.9876C25.6543 23.1343 23.7658 25.3517 21.8772 26.4674C19.2191 28.0351 15.6798 28.4306 12.7 27.5126C11.7067 27.2019 10 26.411 10 26.2697C10 26.2274 10.5176 26.1709 11.1471 26.1567C12.4622 26.1285 13.7772 25.7613 14.8964 25.1116L15.6518 24.6597L14.7844 24.3631C13.5534 23.9394 12.4482 22.9649 12.1684 22.0468C12.0844 21.7502 12.1124 21.7361 12.8958 21.7361L13.7072 21.722L13.0218 21.3972C12.2104 20.9876 11.4689 20.2955 11.1052 19.5894C10.8394 19.0809 10.5036 17.7957 10.6016 17.6968C10.6295 17.6545 10.9233 17.7392 11.2591 17.8522C12.2243 18.2053 12.3503 18.1205 11.7907 17.5274C10.7414 16.454 10.4197 14.858 10.9233 13.3468L11.1611 12.6689L12.0844 13.5869C13.973 15.4371 16.1974 16.5387 18.7435 16.8636L19.443 16.9483Z" />
    </svg>
    <svg id="send" width="21" height="19" viewBox="0 0 21 19" fill="white">
        <path d="M20.0857 8.85046L1.51474 0.279244C1.21903 0.144962 0.866184 0.22496 0.660475 0.479239C0.453337 0.733519 0.446194 1.09494 0.643332 1.35636L6.75033 9.49902L0.643332 17.6417C0.446194 17.9031 0.453337 18.2659 0.659046 18.5188C0.797614 18.6917 1.00475 18.7845 1.21475 18.7845C1.31617 18.7845 1.4176 18.7631 1.51331 18.7188L20.0843 10.1476C20.3386 10.0304 20.5 9.77758 20.5 9.49902C20.5 9.22045 20.3386 8.9676 20.0857 8.85046Z"/>
    </svg>
    <svg id="next" width="6" height="11" viewBox="0 0 6 11">
        <path d="M0.413444 5.22558L5.03874 0.613083C5.19028 0.462049 5.43563 0.462303 5.58692 0.613865C5.73809 0.765407 5.7377 1.01089 5.58614 1.16205L1.23616 5.50002L5.58629 9.83797C5.73784 9.98914 5.73823 10.2345 5.58708 10.386C5.51124 10.462 5.41188 10.5 5.31253 10.5C5.21342 10.5 5.11446 10.4623 5.03876 10.3868L0.413444 5.77443C0.340456 5.70181 0.299499 5.60299 0.299499 5.50002C0.299499 5.39705 0.340573 5.29834 0.413444 5.22558Z"/>
    </svg>
    <svg id="search" width="20" height="20" viewBox="0 0 20 20">
        <path d="M19.8779 18.6996L14.0681 12.8897C15.17 11.5293 15.8334 9.79975 15.8334 7.9167C15.8334 3.55145 12.2819 0 7.91666 0C3.55141 0 0 3.55145 0 7.9167C0 12.2819 3.55145 15.8334 7.9167 15.8334C9.79975 15.8334 11.5293 15.17 12.8897 14.0681L18.6996 19.878C18.8623 20.0407 19.1261 20.0407 19.2889 19.878L19.878 19.2888C20.0407 19.1261 20.0407 18.8623 19.8779 18.6996ZM7.9167 14.1667C4.47024 14.1667 1.66668 11.3631 1.66668 7.9167C1.66668 4.47024 4.47024 1.66668 7.9167 1.66668C11.3631 1.66668 14.1667 4.47024 14.1667 7.9167C14.1667 11.3631 11.3631 14.1667 7.9167 14.1667Z"/>
    </svg>
    <svg id="close" width="10" height="10" viewBox="0 0 10 10">
        <path d="M0.141602 0.834488C-0.0458984 0.646988 -0.0458984 0.334925 0.141602 0.140869C0.335657 -0.0466309 0.641164 -0.0466309 0.83522 0.140869L4.99737 4.31001L9.16651 0.140869C9.35401 -0.0466309 9.66608 -0.0466309 9.85314 0.140869C10.0472 0.334925 10.0472 0.647425 9.85314 0.834488L5.69099 4.99708L9.85314 9.16622C10.0472 9.35372 10.0472 9.66578 9.85314 9.85984C9.66564 10.0473 9.35358 10.0473 9.16651 9.85984L4.99737 5.69069L0.83522 9.85984C0.641164 10.0473 0.335657 10.0473 0.141602 9.85984C-0.0458984 9.66578 -0.0458984 9.35328 0.141602 9.16622L4.30375 4.99708L0.141602 0.834488Z"/>
    </svg>

</svg>