<svg xmlns="http://www.w3.org/2000/svg">
<defs>
  <style>
    :root svg:not(:target) {
      display: none;
    }
  </style>
</defs>
  <svg id="location" width="14" height="15" viewBox="0 0 14 15">
    <g clip-path="url(#clip0_2_326)">
      <path
          d="M6.99998 0.5C4.12126 0.5 1.7793 2.84291 1.7793 5.72276C1.7793 10.0136 6.48033 14.2032 6.68052 14.3794C6.77178 14.4598 6.88586 14.5001 6.99998 14.5001C7.1141 14.5001 7.22817 14.4599 7.31948 14.3794C7.51958 14.2032 12.2207 10.0136 12.2207 5.72276C12.2207 2.84291 9.8787 0.5 6.99998 0.5ZM6.99998 4.25658C7.79963 4.25658 8.45018 4.9143 8.45018 5.72276C8.45018 6.53123 7.79963 7.18895 6.99998 7.18895C6.20033 7.18895 5.54977 6.53123 5.54977 5.72276C5.54977 4.9143 6.20033 4.25658 6.99998 4.25658Z" />
    </g>
    <defs>
      <clipPath id="clip0_2_326">
          <rect width="14" height="14" fill="white" transform="translate(0 0.5)" />
      </clipPath>
    </defs>
  </svg>
  <svg id="phone" width="14" height="15" viewBox="0 0 14 15">
    <g clip-path="url(#clip0_2_116)">
      <path
          d="M13.6189 10.7746L11.6652 8.82085C10.9674 8.12308 9.7812 8.40222 9.50209 9.30928C9.29276 9.9373 8.595 10.2862 7.96701 10.1466C6.57148 9.79772 4.68752 7.98353 4.33863 6.51822C4.1293 5.89021 4.54796 5.19244 5.17595 4.98314C6.08305 4.70403 6.36215 3.51783 5.66439 2.82007L3.71064 0.866327C3.15243 0.377891 2.31511 0.377891 1.82668 0.866327L0.500926 2.19208C-0.824828 3.58761 0.640479 7.28576 3.91997 10.5653C7.19947 13.8448 10.8976 15.3799 12.2932 13.9843L13.6189 12.6586C14.1074 12.1003 14.1074 11.263 13.6189 10.7746Z" />
    </g>
    <defs>
      <clipPath id="clip0_2_116">
          <rect width="14" height="14" fill="white" transform="translate(0 0.5)" />
      </clipPath>
    </defs>
  </svg>
  <svg id="vk" width="40" height="40" viewBox="0 0 40 40">
    <path fill-rule="evenodd" clip-rule="evenodd" d="M20 0C8.95431 0 0 8.95431 0 20C0 31.0457 8.95431 40 20 40C31.0457 40 40 31.0457 40 20C40 8.95431 31.0457 0 20 0ZM21.6284 26.3135C21.4312 26.5214 21.0462 26.5634 21.0462 26.5634H19.7712C19.7712 26.5634 16.9581 26.7293 14.48 24.1975C11.7776 21.4352 9.39128 15.9546 9.39128 15.9546C9.39128 15.9546 9.25355 15.5951 9.40276 15.422C9.57075 15.2264 10.0288 15.2141 10.0288 15.2141L13.0766 15.1947C13.0766 15.1947 13.3636 15.2407 13.5691 15.3893C13.7392 15.5122 13.8341 15.7406 13.8341 15.7406C13.8341 15.7406 14.3266 16.9635 14.9788 18.0696C16.2528 20.2297 16.8454 20.7018 17.2774 20.4704C17.9076 20.1334 17.7188 17.4172 17.7188 17.4172C17.7188 17.4172 17.7302 16.4319 17.4016 15.9925C17.147 15.6525 16.667 15.5531 16.4552 15.5255C16.283 15.5029 16.5648 15.1117 16.93 14.9365C17.4788 14.6733 18.4471 14.658 19.5917 14.6692C20.4838 14.6784 20.7405 14.7327 21.089 14.8157C21.8978 15.0073 21.8726 15.6213 21.8181 16.9464C21.8018 17.3427 21.7829 17.8026 21.7829 18.3339C21.7829 18.4532 21.7793 18.5805 21.7757 18.7114C21.7568 19.3903 21.7351 20.1677 22.1908 20.4571C22.4246 20.6045 22.9953 20.4786 24.4237 18.0983C25.1009 16.9696 25.608 15.6433 25.608 15.6433C25.608 15.6433 25.7197 15.4067 25.8918 15.3053C26.0682 15.2018 26.3061 15.2336 26.3061 15.2336L29.5135 15.2141C29.5135 15.2141 30.4776 15.1004 30.6331 15.5285C30.7969 15.9761 30.2731 17.0229 28.9626 18.7374C27.7195 20.3642 27.1145 20.9632 27.17 21.4929C27.2106 21.88 27.6038 22.2301 28.3585 22.9172C29.9338 24.3529 30.3561 25.1082 30.4575 25.2897C30.4659 25.3048 30.4721 25.3159 30.4766 25.3231C31.183 26.4733 29.693 26.5634 29.693 26.5634L26.8434 26.6023C26.8434 26.6023 26.232 26.7211 25.4265 26.1783C25.0045 25.8942 24.5922 25.4302 24.1995 24.9882C23.5997 24.3132 23.0456 23.6896 22.5727 23.8369C21.7787 24.0848 21.8027 25.7635 21.8027 25.7635C21.8027 25.7635 21.809 26.123 21.6284 26.3135Z"/>
  </svg>
  <svg id="x" width="40" height="40" viewBox="0 0 40 40">
    <path fill-rule="evenodd" clip-rule="evenodd"
        d="M20 0C8.95431 0 0 8.95431 0 20C0 31.0457 8.95431 40 20 40C31.0457 40 40 31.0457 40 20C40 8.95431 31.0457 0 20 0ZM19.443 16.9483L19.401 16.2563C19.2751 14.4626 20.3803 12.8243 22.129 12.1887C22.7725 11.9627 23.8637 11.9345 24.5772 12.1322C24.8569 12.217 25.3885 12.4994 25.7663 12.7537L26.4518 13.2197L27.2072 12.9796C27.6269 12.8525 28.1865 12.6407 28.4383 12.4994C28.6761 12.3723 28.8859 12.3017 28.8859 12.3441C28.8859 12.5842 28.3683 13.4033 27.9347 13.8553C27.3471 14.4908 27.515 14.5473 28.7041 14.1236C29.4175 13.8835 29.4315 13.8835 29.2916 14.1519C29.2077 14.2931 28.774 14.7874 28.3124 15.2394C27.529 16.0162 27.487 16.1009 27.487 16.7506C27.487 17.7533 27.0113 19.8436 26.5357 20.9876C25.6543 23.1343 23.7658 25.3517 21.8772 26.4674C19.2191 28.0351 15.6798 28.4306 12.7 27.5126C11.7067 27.2019 10 26.411 10 26.2697C10 26.2274 10.5176 26.1709 11.1471 26.1567C12.4622 26.1285 13.7772 25.7613 14.8964 25.1116L15.6518 24.6597L14.7844 24.3631C13.5534 23.9394 12.4482 22.9649 12.1684 22.0468C12.0844 21.7502 12.1124 21.7361 12.8958 21.7361L13.7072 21.722L13.0218 21.3972C12.2104 20.9876 11.4689 20.2955 11.1052 19.5894C10.8394 19.0809 10.5036 17.7957 10.6016 17.6968C10.6295 17.6545 10.9233 17.7392 11.2591 17.8522C12.2243 18.2053 12.3503 18.1205 11.7907 17.5274C10.7414 16.454 10.4197 14.858 10.9233 13.3468L11.1611 12.6689L12.0844 13.5869C13.973 15.4371 16.1974 16.5387 18.7435 16.8636L19.443 16.9483Z" />
  </svg>
  <svg id="send" width="21" height="19" viewBox="0 0 21 19" fill="white">
    <path d="M20.0857 8.85046L1.51474 0.279244C1.21903 0.144962 0.866184 0.22496 0.660475 0.479239C0.453337 0.733519 0.446194 1.09494 0.643332 1.35636L6.75033 9.49902L0.643332 17.6417C0.446194 17.9031 0.453337 18.2659 0.659046 18.5188C0.797614 18.6917 1.00475 18.7845 1.21475 18.7845C1.31617 18.7845 1.4176 18.7631 1.51331 18.7188L20.0843 10.1476C20.3386 10.0304 20.5 9.77758 20.5 9.49902C20.5 9.22045 20.3386 8.9676 20.0857 8.85046Z"/>
  </svg>
  <svg id="next" width="6" height="11" viewBox="0 0 6 11">
    <path d="M0.413444 5.22558L5.03874 0.613083C5.19028 0.462049 5.43563 0.462303 5.58692 0.613865C5.73809 0.765407 5.7377 1.01089 5.58614 1.16205L1.23616 5.50002L5.58629 9.83797C5.73784 9.98914 5.73823 10.2345 5.58708 10.386C5.51124 10.462 5.41188 10.5 5.31253 10.5C5.21342 10.5 5.11446 10.4623 5.03876 10.3868L0.413444 5.77443C0.340456 5.70181 0.299499 5.60299 0.299499 5.50002C0.299499 5.39705 0.340573 5.29834 0.413444 5.22558Z"/>
  </svg>
  <svg id="search" width="20" height="20" viewBox="0 0 20 20">
    <path d="M19.8779 18.6996L14.0681 12.8897C15.17 11.5293 15.8334 9.79975 15.8334 7.9167C15.8334 3.55145 12.2819 0 7.91666 0C3.55141 0 0 3.55145 0 7.9167C0 12.2819 3.55145 15.8334 7.9167 15.8334C9.79975 15.8334 11.5293 15.17 12.8897 14.0681L18.6996 19.878C18.8623 20.0407 19.1261 20.0407 19.2889 19.878L19.878 19.2888C20.0407 19.1261 20.0407 18.8623 19.8779 18.6996ZM7.9167 14.1667C4.47024 14.1667 1.66668 11.3631 1.66668 7.9167C1.66668 4.47024 4.47024 1.66668 7.9167 1.66668C11.3631 1.66668 14.1667 4.47024 14.1667 7.9167C14.1667 11.3631 11.3631 14.1667 7.9167 14.1667Z"/>
  </svg>
  <svg id="close" width="10" height="10" viewBox="0 0 10 10">
    <path d="M0.141602 0.834488C-0.0458984 0.646988 -0.0458984 0.334925 0.141602 0.140869C0.335657 -0.0466309 0.641164 -0.0466309 0.83522 0.140869L4.99737 4.31001L9.16651 0.140869C9.35401 -0.0466309 9.66608 -0.0466309 9.85314 0.140869C10.0472 0.334925 10.0472 0.647425 9.85314 0.834488L5.69099 4.99708L9.85314 9.16622C10.0472 9.35372 10.0472 9.66578 9.85314 9.85984C9.66564 10.0473 9.35358 10.0473 9.16651 9.85984L4.99737 5.69069L0.83522 9.85984C0.641164 10.0473 0.335657 10.0473 0.141602 9.85984C-0.0458984 9.66578 -0.0458984 9.35328 0.141602 9.16622L4.30375 4.99708L0.141602 0.834488Z"/>
  </svg>
  <svg id="theme-dark" width="20" height="20" viewBox="0 0 210 245">
    <path
    d="M 93.981802,225.1995 C 66.61878,218.32002 42.650841,198.22258 30.536621,171.99978 24.485286,158.90085 23.322046,152.8786 23.258929,134.32179 c -0.06408,-18.84371 0.993554,-24.3765 7.202569,-37.677916 8.750316,-18.74566 24.691776,-35.857158 41.357427,-44.392979 6.741023,-3.452559 12.700253,-6.277411 13.242738,-6.277411 0.542485,0 -1.134454,6.138925 -3.726513,13.642005 -15.083001,43.660091 6.883122,92.300701 50.98485,112.898121 13.54916,6.32808 18.73854,7.28165 39.62697,7.28165 13.21985,0 24.03603,0.7505 24.03595,1.66776 -8e-5,0.91733 -5.33829,7.60516 -11.86268,14.86185 -22.02064,24.49222 -59.63871,36.5427 -90.138438,28.87463 z"
    />
  </svg>
  <svg id="theme-light" width="20" height="20" viewBox="0 0 30 30">
    <path d="M 14.984375 0.98632812 A 1.0001 1.0001 0 0 0 14 2 L 14 5 A 1.0001 1.0001 0 1 0 16 5 L 16 2 A 1.0001 1.0001 0 0 0 14.984375 0.98632812 z M 5.796875 4.7988281 A 1.0001 1.0001 0 0 0 5.1015625 6.515625 L 7.2226562 8.6367188 A 1.0001 1.0001 0 1 0 8.6367188 7.2226562 L 6.515625 5.1015625 A 1.0001 1.0001 0 0 0 5.796875 4.7988281 z M 24.171875 4.7988281 A 1.0001 1.0001 0 0 0 23.484375 5.1015625 L 21.363281 7.2226562 A 1.0001 1.0001 0 1 0 22.777344 8.6367188 L 24.898438 6.515625 A 1.0001 1.0001 0 0 0 24.171875 4.7988281 z M 15 8 A 7 7 0 0 0 8 15 A 7 7 0 0 0 15 22 A 7 7 0 0 0 22 15 A 7 7 0 0 0 15 8 z M 2 14 A 1.0001 1.0001 0 1 0 2 16 L 5 16 A 1.0001 1.0001 0 1 0 5 14 L 2 14 z M 25 14 A 1.0001 1.0001 0 1 0 25 16 L 28 16 A 1.0001 1.0001 0 1 0 28 14 L 25 14 z M 7.9101562 21.060547 A 1.0001 1.0001 0 0 0 7.2226562 21.363281 L 5.1015625 23.484375 A 1.0001 1.0001 0 1 0 6.515625 24.898438 L 8.6367188 22.777344 A 1.0001 1.0001 0 0 0 7.9101562 21.060547 z M 22.060547 21.060547 A 1.0001 1.0001 0 0 0 21.363281 22.777344 L 23.484375 24.898438 A 1.0001 1.0001 0 1 0 24.898438 23.484375 L 22.777344 21.363281 A 1.0001 1.0001 0 0 0 22.060547 21.060547 z M 14.984375 23.986328 A 1.0001 1.0001 0 0 0 14 25 L 14 28 A 1.0001 1.0001 0 1 0 16 28 L 16 25 A 1.0001 1.0001 0 0 0 14.984375 23.986328 z"></path>
  </svg>
  <svg id="theme-system" width="20" height="20" viewBox="0 0 135.46667 135.46667">
    <path
        style="stroke-width:0.263257"
        d="m 66.607055,135.05889 c -1.630176,-0.99408 -1.690104,-1.39188 -1.690104,-11.21854 0,-9.77401 0.04896,-10.11081 1.603171,-11.0289 1.685972,-0.99593 3.583952,-0.39143 4.51716,1.4387 0.410942,0.80592 0.460334,1.84393 0.4607,9.68205 5.27e-4,9.74811 -0.04892,10.06952 -1.704053,11.09244 -1.072016,0.66254 -2.137759,0.674 -3.186874,0.0343 z M 21.742712,115.7588 c -1.132757,-0.76861 -1.658306,-2.14143 -1.306947,-3.41394 0.179194,-0.64899 1.931086,-2.56395 6.644966,-7.26349 6.349353,-6.33002 6.410753,-6.382121 7.521196,-6.382121 2.27274,0 3.690171,1.560431 3.333746,3.670081 -0.141005,0.83462 -1.06103,1.86715 -6.56345,7.36614 -6.127345,6.12352 -6.448536,6.40084 -7.553782,6.52199 -0.916938,0.10057 -1.343816,-0.002 -2.075729,-0.49866 z m 90.692238,0.17 c -0.96561,-0.49575 -11.78763,-11.22572 -12.549307,-12.44257 -0.79994,-1.27797 -0.557772,-3.06526 0.549347,-4.054481 0.67361,-0.601869 1.0636,-0.7325 2.18684,-0.7325 h 1.36703 l 6.42246,6.407211 c 6.19987,6.18518 6.42707,6.44823 6.55585,7.59085 0.30355,2.69305 -2.15985,4.44946 -4.53222,3.23149 z M 65.525814,106.06227 C 56.049447,105.27595 47.491837,101.16159 40.828884,94.18837 29.72291,82.565225 27.048053,65.363492 34.10038,50.918002 39.639729,39.571585 50.006041,31.846842 62.581512,29.694504 c 7.313466,-1.251727 16.269878,0.02914 22.7379,3.251768 16.181368,8.062213 24.632498,25.206434 21.057498,42.717941 -0.98103,4.805416 -3.36038,10.192856 -6.377877,14.441103 -1.94391,2.736786 -6.18923,6.982107 -8.926017,8.926022 -7.34836,5.219472 -16.621468,7.771562 -25.547202,7.030932 z m 2.485461,-38.361599 -0.06686,-32.051608 -1.579546,0.07856 C 59.21649,36.083156 51.558977,39.480842 46.139702,44.701658 33.246905,57.122309 33.05716,77.63909 45.718469,90.248795 c 5.60434,5.5815 13.957652,9.332304 21.108148,9.477982 l 1.251524,0.02549 z M 3.6532958,70.765149 c -1.9118813,-0.552674 -2.83660597,-3.27938 -1.631654,-4.811224 1.142743,-1.45276 1.3271718,-1.478243 10.6914232,-1.477174 8.155135,0.0011 8.682474,0.03008 9.493747,0.524712 1.135847,0.692533 1.765173,2.025703 1.535117,3.252007 -0.217816,1.161056 -1.424973,2.412466 -2.542819,2.636035 -1.297852,0.259572 -16.5926824,0.15117 -17.5458142,-0.124356 z m 111.6138942,0.10656 c -0.89536,-0.172663 -2.13245,-1.562486 -2.33051,-2.618239 -0.23006,-1.226304 0.39927,-2.559474 1.53511,-3.252007 0.81127,-0.494637 1.33861,-0.523783 9.49374,-0.524712 9.36425,-0.0011 9.54869,0.0244 10.69143,1.477174 1.25221,1.59193 0.27965,4.261451 -1.75876,4.827566 -0.94304,0.261901 -16.33237,0.34065 -17.63101,0.09022 z M 33.852559,37.169102 C 33.217232,37.049309 22.088941,26.288117 20.908899,24.652427 c -1.222801,-1.694962 -0.354975,-4.397674 1.579311,-4.918524 1.937807,-0.521797 2.343709,-0.230095 9.042647,6.498476 6.808917,6.839038 7.003419,7.125035 6.18224,9.090393 -0.597092,1.42904 -2.145694,2.169671 -3.860538,1.84633 z M 101.3558,36.986041 c -1.26452,-0.550572 -1.952108,-1.609199 -1.952108,-3.005504 v -1.202634 l 6.375298,-6.394768 c 4.3006,-4.313712 6.65657,-6.487592 7.2396,-6.680005 1.96139,-0.647321 4.02335,0.95167 4.02335,3.119991 v 1.217938 l -6.38211,6.401615 c -4.84951,4.864308 -6.60385,6.463212 -7.30541,6.65812 -1.11965,0.311069 -1.00558,0.317618 -1.99862,-0.114753 z M 66.395111,22.59457 c -1.449725,-1.140355 -1.47816,-1.34272 -1.47816,-10.520013 0,-9.3774292 0.06958,-9.8225085 1.690104,-10.8107009 1.049115,-0.63974928 2.114858,-0.62829701 3.186874,0.034246 1.644599,1.016418 1.704461,1.390104 1.704461,10.6402099 0,9.130422 -0.06771,9.602982 -1.524585,10.640369 -1.042573,0.742378 -2.646062,0.749498 -3.578694,0.01589 z"/>
  </svg>
  <svg id="logo" width="25" height="25" viewBox="0 0 450 450" fill="none">
    <g clip-path="url(#clip0_16_2)">
    <rect width="450" height="450" rx="155" fill="rgba(21,23,27,0.822)"/>
        <path d="M119.441 340.95C112.628 340.95 105.449 340.22 97.9059 338.76C90.6059 337.543 84.4009 335.475 79.2909 332.555C74.1809 329.635 71.6259 325.863 71.6259 321.24C71.6259 320.753 71.9909 320.145 72.7209 319.415C73.2075 318.442 73.6942 318.32 74.1809 319.05C77.3442 322.457 81.6025 325.255 86.9559 327.445C92.5525 329.392 98.3925 330.73 104.476 331.46C110.803 332.433 116.643 332.92 121.996 332.92C133.189 332.92 143.409 331.46 152.656 328.54C162.146 325.377 169.689 320.753 175.286 314.67C180.883 308.343 183.681 300.557 183.681 291.31C183.681 283.28 181.126 275.98 176.016 269.41C170.906 262.597 164.579 255.905 157.036 249.335C149.736 242.522 142.314 235.465 134.771 228.165C127.471 220.865 121.266 212.835 116.156 204.075C111.046 195.072 108.491 184.73 108.491 173.05C108.491 164.047 110.924 155.652 115.791 147.865C120.901 139.835 127.593 132.778 135.866 126.695C144.383 120.612 153.629 115.867 163.606 112.46C173.583 109.053 183.559 107.35 193.536 107.35C205.216 107.35 213.976 109.54 219.816 113.92C225.656 118.3 228.576 126.33 228.576 138.01C228.576 145.067 227.116 151.758 224.196 158.085C221.276 164.168 217.383 167.21 212.516 167.21C211.543 167.21 210.569 166.845 209.596 166.115C208.623 165.142 208.258 163.803 208.501 162.1C208.988 157.233 209.474 152.732 209.961 148.595C210.448 144.458 210.691 140.808 210.691 137.645C210.691 129.858 209.353 124.018 206.676 120.125C204.243 115.988 199.498 113.92 192.441 113.92C181.491 113.92 170.906 116.475 160.686 121.585C150.709 126.452 142.436 133.265 135.866 142.025C129.296 150.542 126.011 160.153 126.011 170.86C126.011 179.133 128.566 187.042 133.676 194.585C138.786 202.128 144.991 209.428 152.291 216.485C159.834 223.542 167.378 230.72 174.921 238.02C182.464 245.077 188.791 252.377 193.901 259.92C199.011 267.463 201.566 275.493 201.566 284.01C201.566 297.15 197.429 307.978 189.156 316.495C180.883 324.768 170.419 330.852 157.766 334.745C145.356 338.882 132.581 340.95 119.441 340.95ZM251.294 335.11C250.564 335.11 248.739 334.988 245.819 334.745C243.143 334.745 240.588 334.502 238.154 334.015C235.721 333.528 234.504 332.677 234.504 331.46C234.504 330.243 235.843 329.392 238.519 328.905C241.196 328.175 244.359 327.688 248.009 327.445C251.903 326.958 255.431 326.715 258.594 326.715C261.758 326.472 263.826 326.35 264.799 326.35C265.529 326.35 267.719 326.228 271.369 325.985C275.263 325.498 277.696 324.647 278.669 323.43C279.399 320.267 280.738 314.305 282.684 305.545C284.631 296.542 286.821 285.957 289.254 273.79C291.688 261.38 294.243 248.605 296.919 235.465C299.596 222.082 302.151 209.307 304.584 197.14C307.018 184.973 309.086 174.632 310.789 166.115C312.493 157.355 313.588 151.515 314.074 148.595C315.534 137.158 316.508 129.858 316.994 126.695C317.481 123.288 317.481 120.733 316.994 119.03C307.991 119.03 297.649 119.76 285.969 121.22H284.144C282.441 121.22 280.494 120.977 278.304 120.49C276.114 120.003 275.019 119.152 275.019 117.935C275.019 116.962 275.749 116.353 277.209 116.11C278.669 115.623 279.521 115.258 279.764 115.015C283.901 113.555 288.524 112.46 293.634 111.73C298.988 111 303.854 110.392 308.234 109.905C312.614 109.418 315.534 109.053 316.994 108.81C319.184 107.35 322.348 106.012 326.484 104.795C330.621 103.578 333.784 102.97 335.974 102.97C338.164 102.97 339.381 103.822 339.624 105.525C339.868 106.985 339.989 107.958 339.989 108.445H349.479C351.669 108.445 355.319 108.567 360.429 108.81C365.539 109.053 370.406 109.783 375.029 111C379.896 111.973 382.816 113.555 383.789 115.745C384.276 116.718 384.519 117.57 384.519 118.3C384.519 119.03 383.911 119.395 382.694 119.395C380.748 119.395 378.679 119.273 376.489 119.03C374.299 118.787 372.109 118.665 369.919 118.665C366.756 118.665 363.349 118.665 359.699 118.665C356.293 118.422 352.886 118.3 349.479 118.3C347.776 118.3 345.221 118.543 341.814 119.03C338.651 119.273 336.826 120.125 336.339 121.585C332.933 134.968 329.404 150.177 325.754 167.21C322.104 184 318.576 201.033 315.169 218.31C311.763 235.587 308.599 251.768 305.679 266.855C303.003 281.942 300.813 294.595 299.109 304.815C297.649 314.792 296.919 320.997 296.919 323.43C296.919 324.16 298.501 324.647 301.664 324.89C304.828 325.133 306.653 325.255 307.139 325.255C312.006 325.742 317.603 326.228 323.929 326.715C330.256 327.202 335.731 328.175 340.354 329.635C340.354 329.635 340.598 329.757 341.084 330C341.814 330.243 342.179 330.608 342.179 331.095C342.179 332.068 340.963 332.798 338.529 333.285C336.339 333.772 333.906 334.015 331.229 334.015C328.796 334.258 327.214 334.38 326.484 334.38C321.131 334.38 315.778 334.258 310.424 334.015C305.314 334.015 300.204 334.015 295.094 334.015C287.794 334.015 280.494 334.137 273.194 334.38C265.894 334.867 258.594 335.11 251.294 335.11Z" fill="white"/>
    </g>
    <defs>
    <clipPath id="clip0_16_2">
    <rect width="450" height="450" rx="155" fill="white"/>
    </clipPath>
  </defs>
  </svg>
  <svg id="github-icon" width="25" height="25" viewBox="0 -3.5 256 256" preserveAspectRatio="xMinYMin meet">
    <path d="M127.505 0C57.095 0 0 57.085 0 127.505c0 56.336 36.534 104.13 87.196 120.99 6.372 1.18 8.712-2.766 8.712-6.134 0-3.04-.119-13.085-.173-23.739-35.473 7.713-42.958-15.044-42.958-15.044-5.8-14.738-14.157-18.656-14.157-18.656-11.568-7.914.872-7.752.872-7.752 12.804.9 19.546 13.14 19.546 13.14 11.372 19.493 29.828 13.857 37.104 10.6 1.144-8.242 4.449-13.866 8.095-17.05-28.32-3.225-58.092-14.158-58.092-63.014 0-13.92 4.981-25.295 13.138-34.224-1.324-3.212-5.688-16.18 1.235-33.743 0 0 10.707-3.427 35.073 13.07 10.17-2.826 21.078-4.242 31.914-4.29 10.836.048 21.752 1.464 31.942 4.29 24.337-16.497 35.029-13.07 35.029-13.07 6.94 17.563 2.574 30.531 1.25 33.743 8.175 8.929 13.122 20.303 13.122 34.224 0 48.972-29.828 59.756-58.22 62.912 4.573 3.957 8.648 11.717 8.648 23.612 0 17.06-.148 30.791-.148 34.991 0 3.393 2.295 7.369 8.759 6.117 50.634-16.879 87.122-64.656 87.122-120.973C255.009 57.085 197.922 0 127.505 0"/>
    <path d="M47.755 181.634c-.28.633-1.278.823-2.185.389-.925-.416-1.445-1.28-1.145-1.916.275-.652 1.273-.834 2.196-.396.927.415 1.455 1.287 1.134 1.923M54.027 187.23c-.608.564-1.797.302-2.604-.589-.834-.889-.99-2.077-.373-2.65.627-.563 1.78-.3 2.616.59.834.899.996 2.08.36 2.65M58.33 194.39c-.782.543-2.06.034-2.849-1.1-.781-1.133-.781-2.493.017-3.038.792-.545 2.05-.055 2.85 1.07.78 1.153.78 2.513-.019 3.069M65.606 202.683c-.699.77-2.187.564-3.277-.488-1.114-1.028-1.425-2.487-.724-3.258.707-.772 2.204-.555 3.302.488 1.107 1.026 1.445 2.496.7 3.258M75.01 205.483c-.307.998-1.741 1.452-3.185 1.028-1.442-.437-2.386-1.607-2.095-2.616.3-1.005 1.74-1.478 3.195-1.024 1.44.435 2.386 1.596 2.086 2.612M85.714 206.67c.036 1.052-1.189 1.924-2.705 1.943-1.525.033-2.758-.818-2.774-1.852 0-1.062 1.197-1.926 2.721-1.951 1.516-.03 2.758.815 2.758 1.86M96.228 206.267c.182 1.026-.872 2.08-2.377 2.36-1.48.27-2.85-.363-3.039-1.38-.184-1.052.89-2.105 2.367-2.378 1.508-.262 2.857.355 3.049 1.398"/>
  </svg>
  <svg id="instagram-icon" width="25" height="25" fill="currentColor" class="bi bi-instagram" viewBox="0 0 16 16">
    <path d="M8 0C5.829 0 5.556.01 4.703.048 3.85.088 3.269.222 2.76.42a3.9 3.9 0 0 0-1.417.923A3.9 3.9 0 0 0 .42 2.76C.222 3.268.087 3.85.048 4.7.01 5.555 0 5.827 0 8.001c0 2.172.01 2.444.048 3.297.04.852.174 1.433.372 1.942.205.526.478.972.923 1.417.444.445.89.719 1.416.923.51.198 1.09.333 1.942.372C5.555 15.99 5.827 16 8 16s2.444-.01 3.298-.048c.851-.04 1.434-.174 1.943-.372a3.9 3.9 0 0 0 1.416-.923c.445-.445.718-.891.923-1.417.197-.509.332-1.09.372-1.942C15.99 10.445 16 10.173 16 8s-.01-2.445-.048-3.299c-.04-.851-.175-1.433-.372-1.941a3.9 3.9 0 0 0-.923-1.417A3.9 3.9 0 0 0 13.24.42c-.51-.198-1.092-.333-1.943-.372C10.443.01 10.172 0 7.998 0zm-.717 1.442h.718c2.136 0 2.389.007 3.232.046.78.035 1.204.166 1.486.275.373.145.64.319.92.599s.453.546.598.92c.11.281.24.705.275 1.485.039.843.047 1.096.047 3.231s-.008 2.389-.047 3.232c-.035.78-.166 1.203-.275 1.485a2.5 2.5 0 0 1-.599.919c-.28.28-.546.453-.92.598-.28.11-.704.24-1.485.276-.843.038-1.096.047-3.232.047s-2.39-.009-3.233-.047c-.78-.036-1.203-.166-1.485-.276a2.5 2.5 0 0 1-.92-.598 2.5 2.5 0 0 1-.6-.92c-.109-.281-.24-.705-.275-1.485-.038-.843-.046-1.096-.046-3.233s.008-2.388.046-3.231c.036-.78.166-1.204.276-1.486.145-.373.319-.64.599-.92s.546-.453.92-.598c.282-.11.705-.24 1.485-.276.738-.034 1.024-.044 2.515-.045zm4.988 1.328a.96.96 0 1 0 0 1.92.96.96 0 0 0 0-1.92m-4.27 1.122a4.109 4.109 0 1 0 0 8.217 4.109 4.109 0 0 0 0-8.217m0 1.441a2.667 2.667 0 1 1 0 5.334 2.667 2.667 0 0 1 0-5.334"/>
  </svg>
  <svg id="unsplush-icon" width="30" height="30" viewBox="0 0 24 24" role="img">
    <path d="M7.5 6.75V0h9v6.75h-9zm9 3.75H24V24H0V10.5h7.5v6.75h9V10.5z"/>
  </svg>
  <svg id="mastodon-icon" width="30" height="30" viewBox="0 0 24 24">
    <path d="M21.327 8.566c0-4.339-2.843-5.61-2.843-5.61-1.433-.658-3.894-.935-6.451-.956h-.063c-2.557.021-5.016.298-6.45.956 0 0-2.843 1.272-2.843 5.61 0 .993-.019 2.181.012 3.441.103 4.243.778 8.425 4.701 9.463 1.809.479 3.362.579 4.612.51 2.268-.126 3.541-.809 3.541-.809l-.075-1.646s-1.621.511-3.441.449c-1.804-.062-3.707-.194-3.999-2.409a4.523 4.523 0 0 1-.04-.621s1.77.433 4.014.536c1.372.063 2.658-.08 3.965-.236 2.506-.299 4.688-1.843 4.962-3.254.434-2.223.398-5.424.398-5.424zm-3.353 5.59h-2.081V9.057c0-1.075-.452-1.62-1.357-1.62-1 0-1.501.647-1.501 1.927v2.791h-2.069V9.364c0-1.28-.501-1.927-1.502-1.927-.905 0-1.357.546-1.357 1.62v5.099H6.026V8.903c0-1.074.273-1.927.823-2.558.566-.631 1.307-.955 2.228-.955 1.065 0 1.872.409 2.405 1.228l.518.869.519-.869c.533-.819 1.34-1.228 2.405-1.228.92 0 1.662.324 2.228.955.549.631.822 1.484.822 2.558v5.253z"/>
  </svg>
</svg>